<svg version="1.0" xmlns="http://www.w3.org/2000/svg"
    width="1024" height="1024" viewBox="0 0 1024 1024">
    <g transform="translate(0,1024) scale(0.1,-0.1)" stroke="currentColor" fill="#f5f5f5">
        <path
            d="M462 9480 c-18 -11 -41 -34 -52 -52 -20 -33 -20 -54 -20 -1668 0
-1622 0 -1635 20 -1668 12 -19 38 -41 63 -52 40 -19 73 -20 700 -20 719 0 694
-2 752 59 l30 32 3 555 2 554 600 0 600 0 0 -547 c0 -532 1 -549 20 -581 13
-20 38 -41 65 -53 42 -19 68 -19 714 -17 658 3 670 3 697 24 15 11 37 33 48
48 21 27 21 29 24 1648 1 1098 -1 1633 -8 1659 -7 25 -23 48 -47 66 l-36 28
-681 3 c-476 2 -689 -1 -707 -9 -15 -6 -40 -24 -55 -40 l-29 -30 -3 -535 -3
-534 -599 0 -599 0 -3 529 c-3 515 -4 530 -23 557 -11 15 -36 35 -55 45 -33
18 -72 19 -710 19 -656 0 -676 -1 -708 -20z" />
        <path
            d="M6750 9491 c-43 -13 -84 -38 -112 -68 -19 -19 -228 -515 -694 -1643
-367 -888 -669 -1630 -672 -1648 -3 -27 1 -39 23 -62 15 -16 39 -34 54 -40 19
-7 214 -10 656 -8 l630 3 55 31 c73 41 100 82 194 302 l78 182 736 -2 735 -3
81 -190 c70 -165 88 -197 131 -242 83 -85 62 -83 768 -83 542 0 613 2 643 16
43 20 64 49 64 87 0 26 -1247 3067 -1325 3232 -20 41 -46 79 -65 93 -72 54
-41 52 -1034 51 -506 0 -932 -4 -946 -8z m1164 -1480 c113 -272 205 -496 203
-498 -2 -2 -193 -2 -425 -1 l-420 3 211 503 c116 276 214 499 217 495 4 -5
100 -230 214 -502z" />
        <path
            d="M2290 4534 c-445 -38 -736 -101 -1019 -221 -422 -179 -716 -473 -831
-828 -52 -162 -60 -260 -60 -696 0 -500 16 -615 110 -817 206 -439 683 -747
1340 -866 445 -80 978 -86 1443 -16 433 66 829 212 1077 398 301 227 464 473
487 739 7 82 -4 118 -45 148 -26 19 -45 20 -707 23 -374 2 -699 0 -722 -3 -62
-9 -114 -50 -187 -147 -115 -152 -218 -208 -427 -229 -347 -35 -622 60 -710
246 l-29 60 0 462 c0 444 1 464 21 518 44 117 178 208 364 246 86 18 123 20
265 16 174 -6 246 -19 330 -62 59 -30 142 -105 182 -164 45 -67 87 -110 133
-134 40 -22 45 -22 700 -25 363 -2 685 0 714 3 44 6 62 14 88 40 28 28 33 40
33 82 -1 350 -304 731 -755 948 -258 124 -597 217 -955 261 -128 15 -719 28
-840 18z" />
        <path
            d="M5514 4511 c-17 -10 -40 -31 -52 -46 -22 -27 -22 -32 -22 -464 0
-473 -2 -456 55 -503 43 -35 93 -38 754 -38 l651 0 0 -1159 0 -1159 27 -33
c51 -61 30 -59 750 -59 627 0 660 1 700 20 25 11 51 33 63 52 20 33 20 47 20
1186 l0 1152 653 0 c431 0 665 4 690 11 22 6 55 26 75 44 l37 33 3 439 3 439
-23 35 c-13 19 -39 42 -58 51 -33 17 -157 18 -2165 18 -2068 0 -2131 -1 -2161
-19z" />
    </g>
</svg>